<svg width="104" height="101" viewBox="0 0 104 101" fill="none" xmlns="http://www.w3.org/2000/svg">
<path d="M31.2812 4.875C31.3646 5.04167 31.4062 5.625 31.4062 6.625C31.4479 7.625 31.4479 8.83333 31.4062 10.25C31.4062 11.6667 31.3646 13.1875 31.2812 14.8125C31.1979 16.3958 31.0938 17.8958 30.9688 19.3125C30.8854 20.1042 30.7396 21.2917 30.5312 22.875C30.3646 24.4583 30.1562 26.2083 29.9062 28.125C29.6562 30.0417 29.3854 32.0208 29.0938 34.0625C28.8438 36.0625 28.5938 37.9167 28.3438 39.625C28.0938 41.2917 27.8646 42.6875 27.6562 43.8125C27.4896 44.9375 27.3646 45.5417 27.2812 45.625C27.1146 45.75 26.8438 46.0625 26.4688 46.5625C26.0938 47.0208 25.6771 47.5 25.2188 48C24.8021 48.4583 24.4062 48.8333 24.0312 49.125C23.6562 49.4167 23.4062 49.4583 23.2812 49.25C23.1979 48.8333 23.1562 47.5417 23.1562 45.375C23.1562 44.4583 23.1562 43.3125 23.1562 41.9375C23.1979 40.5208 23.2396 38.8125 23.2812 36.8125C23.3646 34.8125 23.4688 32.4792 23.5938 29.8125C23.7188 27.1458 23.8646 24.0625 24.0312 20.5625C23.1979 23.3958 22.4479 25.8958 21.7812 28.0625C21.1562 30.2292 20.5938 32.125 20.0938 33.75C19.6354 35.3333 19.2396 36.6875 18.9062 37.8125C18.5729 38.8958 18.2812 39.7917 18.0312 40.5C17.4896 42.1667 17.1354 43.1458 16.9688 43.4375C16.8021 43.4792 16.5312 43.3542 16.1562 43.0625C15.8229 42.7708 15.4271 42.3542 14.9688 41.8125C14.5521 41.2292 14.1146 40.5417 13.6562 39.75C13.2396 38.9583 12.8854 38.0833 12.5938 37.125C12.3021 36.25 11.9271 35.0833 11.4688 33.625C11.0521 32.375 10.5104 30.75 9.84375 28.75C9.17708 26.7083 8.36458 24.1667 7.40625 21.125C7.65625 24.5417 7.86458 27.5417 8.03125 30.125C8.19792 32.7083 8.32292 34.9583 8.40625 36.875C8.53125 38.7917 8.61458 40.4167 8.65625 41.75C8.73958 43.0417 8.78125 44.125 8.78125 45C8.82292 47 8.76042 48.1458 8.59375 48.4375C8.17708 48.4375 7.71875 48.25 7.21875 47.875C6.76042 47.4583 6.30208 46.9792 5.84375 46.4375C5.42708 45.8542 5.05208 45.2917 4.71875 44.75C4.42708 44.2083 4.26042 43.8125 4.21875 43.5625C4.17708 43.3958 4.05208 42.625 3.84375 41.25C3.63542 39.875 3.38542 38.125 3.09375 36C2.84375 33.8333 2.55208 31.4167 2.21875 28.75C1.92708 26.0417 1.63542 23.2917 1.34375 20.5C1.09375 17.7083 0.885417 15 0.71875 12.375C0.552083 9.70833 0.46875 7.33333 0.46875 5.25C0.46875 4.91667 0.885417 4.47917 1.71875 3.9375C2.55208 3.35417 3.48958 2.8125 4.53125 2.3125C5.61458 1.77083 6.61458 1.3125 7.53125 0.9375C8.44792 0.520833 9.01042 0.3125 9.21875 0.3125C9.38542 0.3125 9.55208 0.791667 9.71875 1.75C9.92708 2.70833 10.1562 3.91667 10.4062 5.375C10.6562 6.83333 10.9271 8.45833 11.2188 10.25C11.5104 12.0417 11.8438 13.75 12.2188 15.375C12.5104 17.0417 12.8646 18.7708 13.2812 20.5625C13.6146 22.1042 13.9896 23.8125 14.4062 25.6875C14.8646 27.5208 15.3646 29.3125 15.9062 31.0625C16.4896 28.5208 17.0104 26.2292 17.4688 24.1875C17.9688 22.1042 18.4062 20.3333 18.7812 18.875C19.2396 17.1667 19.6354 15.6458 19.9688 14.3125C20.7188 11.0625 21.4479 8.5 22.1562 6.625C22.9062 4.75 23.3854 3.64583 23.5938 3.3125C23.7188 3.14583 24.1562 3.10417 24.9062 3.1875C25.6979 3.27083 26.5521 3.41667 27.4688 3.625C28.3854 3.79167 29.2188 4 29.9688 4.25C30.7604 4.5 31.1979 4.70833 31.2812 4.875ZM47.9688 13.8125C48.2604 14.0625 48.5312 14.5417 48.7812 15.25C49.0729 15.9583 49.3229 16.8125 49.5312 17.8125C49.7396 18.8125 49.9271 19.8958 50.0938 21.0625C50.2604 22.2292 50.4062 23.375 50.5312 24.5C50.6562 25.625 50.7396 26.6875 50.7812 27.6875C50.8646 28.6458 50.9271 29.4375 50.9688 30.0625C51.0104 30.8125 51.0312 31.6042 51.0312 32.4375C51.0729 33.2292 51.0729 34 51.0312 34.75C51.0312 35.4583 50.9896 36.1042 50.9062 36.6875C50.8646 37.2708 50.7812 37.7083 50.6562 38C50.4062 38.625 49.9688 39.0625 49.3438 39.3125C48.7604 39.5208 48.0938 39.6667 47.3438 39.75C46.9688 39.7917 46.3229 39.8125 45.4062 39.8125C44.5312 39.7708 43.5729 39.7292 42.5312 39.6875C41.5312 39.6042 40.5729 39.5208 39.6562 39.4375C38.7396 39.3542 38.0521 39.2708 37.5938 39.1875C36.6771 38.9792 36.0104 38.7083 35.5938 38.375C35.2188 38.0417 34.8438 37.5625 34.4688 36.9375C34.3438 36.6875 34.2396 36.0625 34.1562 35.0625C34.0729 34.0208 34.0104 32.7917 33.9688 31.375C33.9688 29.9167 33.9896 28.3542 34.0312 26.6875C34.0729 25.0208 34.1354 23.4375 34.2188 21.9375C34.3438 20.4375 34.4688 19.125 34.5938 18C34.7604 16.875 34.9688 16.125 35.2188 15.75C35.6354 15.1667 36.3438 14.625 37.3438 14.125C38.3854 13.625 39.3229 13.2292 40.1562 12.9375C40.5729 12.8125 41.1146 12.7292 41.7812 12.6875C42.4896 12.6042 43.2188 12.6042 43.9688 12.6875C44.7604 12.7292 45.5104 12.8542 46.2188 13.0625C46.9271 13.2292 47.5104 13.4792 47.9688 13.8125ZM44.4688 33.1875C44.5521 33.0208 44.6354 32.5208 44.7188 31.6875C44.8438 30.8125 44.9271 29.7708 44.9688 28.5625C45.0521 27.3542 45.0938 26.0625 45.0938 24.6875C45.1354 23.3125 45.1562 22.0417 45.1562 20.875C45.1562 19.7083 45.1146 18.7292 45.0312 17.9375C44.9479 17.1042 44.8438 16.625 44.7188 16.5C44.5104 16.3333 44.1979 16.2708 43.7812 16.3125C43.4062 16.3125 43.0104 16.375 42.5938 16.5C42.1771 16.5833 41.8021 16.7083 41.4688 16.875C41.1354 17 40.9062 17.125 40.7812 17.25C40.2396 17.7083 39.9479 18.4583 39.9062 19.5C39.9062 19.7917 39.8646 20.625 39.7812 22C39.7396 23.3333 39.7188 24.7917 39.7188 26.375C39.7188 27.9167 39.7396 29.3542 39.7812 30.6875C39.8646 32.0208 40.0104 32.8333 40.2188 33.125C40.4271 33.4167 40.7188 33.6458 41.0938 33.8125C41.5104 33.9375 41.9271 34 42.3438 34C42.8021 34 43.2188 33.9375 43.5938 33.8125C44.0104 33.6458 44.3021 33.4375 44.4688 33.1875ZM58.2812 40.1875C57.6979 38.0625 57.0521 35.5625 56.3438 32.6875C55.7604 30.2292 55.0521 27.25 54.2188 23.75C53.4271 20.2083 52.5729 16.1667 51.6562 11.625C51.6562 11.3333 51.8438 10.9792 52.2188 10.5625C52.5521 10.1042 52.9688 9.6875 53.4688 9.3125C53.9688 8.89583 54.4896 8.5625 55.0312 8.3125C55.5729 8.02083 56.0521 7.875 56.4688 7.875C56.6354 8.125 56.9271 9.22917 57.3438 11.1875C57.5104 12.0208 57.6979 13.0833 57.9062 14.375C58.1562 15.625 58.4271 17.1875 58.7188 19.0625C59.0104 20.9375 59.3229 23.1458 59.6562 25.6875C60.0312 28.1875 60.4479 31.0833 60.9062 34.375C61.2396 32.125 61.5521 30 61.8438 28C62.1771 26 62.4688 24.2292 62.7188 22.6875C63.0104 20.8958 63.2812 19.2292 63.5312 17.6875C63.6562 16.7292 63.8021 15.7292 63.9688 14.6875C64.1354 13.6042 64.3021 12.625 64.4688 11.75C64.6771 10.875 64.8854 10.1458 65.0938 9.5625C65.3438 8.9375 65.5938 8.625 65.8438 8.625C66.0938 8.625 66.4688 8.6875 66.9688 8.8125C67.4688 8.89583 67.9688 9.02083 68.4688 9.1875C69.0104 9.35417 69.4896 9.5625 69.9062 9.8125C70.3229 10.0208 70.5312 10.25 70.5312 10.5C70.5312 10.625 70.4062 11.25 70.1562 12.375C69.9062 13.4583 69.5729 14.8542 69.1562 16.5625C68.7396 18.2708 68.2604 20.2083 67.7188 22.375C67.1771 24.5 66.6146 26.6667 66.0312 28.875C65.4896 31.0833 64.9271 33.25 64.3438 35.375C63.7604 37.5 63.2188 39.3958 62.7188 41.0625C62.2604 42.6875 61.8646 44.0208 61.5312 45.0625C61.1979 46.0625 60.9688 46.5625 60.8438 46.5625C60.7188 46.5625 60.3646 46 59.7812 44.875C59.2396 43.7083 58.7396 42.1458 58.2812 40.1875ZM77.7188 21.125C77.8021 21.3333 77.8438 22 77.8438 23.125C77.8854 24.2083 77.8854 25.5417 77.8438 27.125C77.8438 28.6667 77.8021 30.3333 77.7188 32.125C77.6354 33.875 77.5312 35.5417 77.4062 37.125C77.3229 38.6667 77.2188 40 77.0938 41.125C76.9688 42.2083 76.8438 42.8542 76.7188 43.0625C76.3438 43.6458 75.7812 44.0208 75.0312 44.1875C74.2812 44.3125 73.7396 44.3333 73.4062 44.25C73.2396 44.25 73.0521 43.7708 72.8438 42.8125C72.6771 41.8542 72.5104 40.6458 72.3438 39.1875C72.1771 37.7292 72.0312 36.1458 71.9062 34.4375C71.7812 32.7292 71.6771 31.1042 71.5938 29.5625C71.5104 27.9792 71.4688 26.6042 71.4688 25.4375C71.4688 24.2708 71.5104 23.5208 71.5938 23.1875C71.7188 22.6458 72.0729 22.1667 72.6562 21.75C73.2812 21.3333 73.9271 21.0208 74.5938 20.8125C75.3021 20.6042 75.9479 20.5208 76.5312 20.5625C77.1562 20.5625 77.5521 20.75 77.7188 21.125ZM78.0312 11C78.1979 11.3333 78.2604 11.7917 78.2188 12.375C78.2188 12.9583 78.1562 13.5625 78.0312 14.1875C77.9062 14.8125 77.7396 15.4167 77.5312 16C77.3229 16.5833 77.1146 17.0417 76.9062 17.375C76.4896 17.9583 75.8646 18.3333 75.0312 18.5C74.2396 18.625 73.6562 18.6458 73.2812 18.5625C72.9896 18.5208 72.6979 18.3333 72.4062 18C72.1146 17.625 71.8646 17.1875 71.6562 16.6875C71.4479 16.1458 71.3021 15.5625 71.2188 14.9375C71.1354 14.3125 71.1562 13.7292 71.2812 13.1875C71.4062 12.6458 71.8021 12.1667 72.4688 11.75C73.1354 11.2917 73.8438 10.9583 74.5938 10.75C75.3438 10.5 76.0521 10.3958 76.7188 10.4375C77.3854 10.4375 77.8229 10.625 78.0312 11ZM87.2812 29.9375C87.9479 29.6875 88.6979 29.4167 89.5312 29.125C90.4062 28.7917 91.2396 28.5 92.0312 28.25C92.8229 27.9583 93.5312 27.7083 94.1562 27.5C94.7812 27.2917 95.2396 27.125 95.5312 27C95.4896 26.5417 95.4271 26.0208 95.3438 25.4375C95.3021 24.8125 95.2396 24.2292 95.1562 23.6875C95.0729 23.1042 94.9688 22.6042 94.8438 22.1875C94.7188 21.7708 94.5938 21.5208 94.4688 21.4375C94.1354 21.3125 93.5729 21.2083 92.7812 21.125C92.0312 21 91.2396 21.0208 90.4062 21.1875C89.6146 21.3542 88.8854 21.6667 88.2188 22.125C87.5521 22.5833 87.1771 23.3125 87.0938 24.3125C87.0104 24.9792 86.9896 25.8125 87.0312 26.8125C87.0729 27.8125 87.1562 28.8542 87.2812 29.9375ZM100.844 30.9375C100.802 31.0208 100.302 31.1875 99.3438 31.4375C98.3854 31.6875 97.2396 31.9583 95.9062 32.25C94.5729 32.5 93.1562 32.7708 91.6562 33.0625C90.1562 33.3125 88.8646 33.5208 87.7812 33.6875C87.9896 35.3542 88.2396 36.8542 88.5312 38.1875C88.8229 39.4792 89.0729 40.2917 89.2812 40.625C89.4896 40.9167 89.7604 41.1875 90.0938 41.4375C90.3854 41.6458 90.7396 41.8542 91.1562 42.0625C91.6146 42.2292 92.1562 42.3542 92.7812 42.4375C93.2396 42.5625 93.6771 42.3958 94.0938 41.9375C94.4271 41.5208 94.7188 40.7917 94.9688 39.75C95.2604 38.7083 95.4062 37.0625 95.4062 34.8125C96.6979 34.6042 97.6979 34.4792 98.4062 34.4375C99.1562 34.3958 99.6979 34.3958 100.031 34.4375C100.448 34.4792 100.698 34.5417 100.781 34.625C100.823 34.75 100.823 35.0625 100.781 35.5625C100.74 36.0625 100.635 36.6875 100.469 37.4375C100.344 38.1458 100.177 38.9375 99.9688 39.8125C99.8021 40.6458 99.5938 41.4583 99.3438 42.25C99.0938 43 98.8229 43.6875 98.5312 44.3125C98.2396 44.8958 97.9271 45.3125 97.5938 45.5625C96.5938 46.3125 95.3438 46.6875 93.8438 46.6875C92.3438 46.6458 90.8646 46.4375 89.4062 46.0625C87.9479 45.6458 86.6354 45.1667 85.4688 44.625C84.3021 44.0417 83.5729 43.5625 83.2812 43.1875C83.0729 42.9375 82.8854 42.3125 82.7188 41.3125C82.5521 40.2708 82.4062 39.0208 82.2812 37.5625C82.1979 36.1042 82.1354 34.5 82.0938 32.75C82.0521 31 82.0729 29.2917 82.1562 27.625C82.2812 25.9583 82.4479 24.4167 82.6562 23C82.9062 21.5833 83.2396 20.4375 83.6562 19.5625C84.2812 18.3125 85.3021 17.2917 86.7188 16.5C88.1354 15.7083 89.6354 15.1667 91.2188 14.875C92.8021 14.5833 94.3021 14.5417 95.7188 14.75C97.1771 14.9583 98.2604 15.4167 98.9688 16.125C99.3854 16.5417 99.7604 17.375 100.094 18.625C100.427 19.8333 100.635 21.3125 100.719 23.0625C100.719 23.2292 100.74 23.7083 100.781 24.5C100.823 25.2917 100.844 26.1458 100.844 27.0625C100.885 27.9375 100.906 28.7708 100.906 29.5625C100.906 30.3542 100.885 30.8125 100.844 30.9375ZM24.125 61.1875C24.1667 61.8125 24.0833 62.75 23.875 64C23.7083 65.25 23.4167 66.5 23 67.75C22.5833 69 22.0417 70.1042 21.375 71.0625C20.75 71.9792 20.0208 72.4375 19.1875 72.4375C18.7708 72.4375 18.4167 72.1875 18.125 71.6875C17.8333 71.1875 17.5833 70.5417 17.375 69.75C17.1667 68.9583 17 68.0833 16.875 67.125C16.75 66.125 16.625 65.1667 16.5 64.25C16.4167 63.3333 16.3333 62.5 16.25 61.75C16.2083 60.9583 16.1667 60.375 16.125 60C15.9583 59.75 15.6458 59.5 15.1875 59.25C14.7708 58.9583 14.3958 58.8125 14.0625 58.8125C13.6875 58.8125 13.2292 59.1667 12.6875 59.875C12.1875 60.5833 11.7083 61.4167 11.25 62.375C10.7917 63.3333 10.4167 64.2917 10.125 65.25C9.83333 66.1667 9.70833 66.875 9.75 67.375C9.75 67.7083 10.0625 68.2917 10.6875 69.125C11.3542 69.9583 12.1667 70.9375 13.125 72.0625C14.0833 73.1875 15.125 74.4167 16.25 75.75C17.375 77.0417 18.4167 78.3333 19.375 79.625C20.3333 80.9167 21.1458 82.1458 21.8125 83.3125C22.4792 84.4792 22.8333 85.4792 22.875 86.3125C22.9583 87.3125 22.7292 88.6042 22.1875 90.1875C21.6875 91.7292 21.0417 93.2292 20.25 94.6875C19.4583 96.1458 18.6042 97.4167 17.6875 98.5C16.8125 99.5417 16.0208 100.083 15.3125 100.125C14.8542 100.167 14.25 99.9583 13.5 99.5C12.75 99.0833 11.9375 98.5208 11.0625 97.8125C10.1875 97.1042 9.29167 96.3333 8.375 95.5C7.5 94.625 6.66667 93.7708 5.875 92.9375C5.125 92.1042 4.47917 91.3542 3.9375 90.6875C3.4375 89.9792 3.14583 89.4583 3.0625 89.125C2.89583 88.625 2.79167 87.9583 2.75 87.125C2.75 86.25 2.79167 85.4167 2.875 84.625C3 83.7917 3.14583 83.0833 3.3125 82.5C3.52083 81.875 3.77083 81.5625 4.0625 81.5625C4.27083 81.5625 4.60417 81.8333 5.0625 82.375C5.5625 82.9167 6.125 83.6042 6.75 84.4375C7.375 85.2708 8.04167 86.1875 8.75 87.1875C9.5 88.1458 10.2083 89.0417 10.875 89.875C11.5417 90.7083 12.1458 91.4167 12.6875 92C13.2292 92.5417 13.6667 92.7917 14 92.75C14.25 92.75 14.5208 92.5625 14.8125 92.1875C15.1042 91.7708 15.375 91.2917 15.625 90.75C15.875 90.1667 16.0833 89.5833 16.25 89C16.4167 88.4167 16.5 87.9583 16.5 87.625C16.4583 87.125 16.0417 86.4167 15.25 85.5C14.5 84.5417 13.5417 83.4792 12.375 82.3125C11.25 81.1042 10.0208 79.8542 8.6875 78.5625C7.39583 77.2708 6.16667 76.0417 5 74.875C3.875 73.6667 2.91667 72.5833 2.125 71.625C1.375 70.6667 0.979167 69.9375 0.9375 69.4375C0.895833 68.9375 1.04167 68.1667 1.375 67.125C1.70833 66.0417 2.14583 64.8333 2.6875 63.5C3.27083 62.1667 3.91667 60.8125 4.625 59.4375C5.33333 58.0625 6.0625 56.7917 6.8125 55.625C7.5625 54.4583 8.29167 53.5208 9 52.8125C9.70833 52.0625 10.3333 51.6875 10.875 51.6875C11.5833 51.6875 12.3958 51.8542 13.3125 52.1875C14.2292 52.4792 15.1667 52.8958 16.125 53.4375C17.125 53.9375 18.0833 54.5208 19 55.1875C19.9583 55.8542 20.8125 56.5417 21.5625 57.25C22.3125 57.9167 22.9167 58.6042 23.375 59.3125C23.8333 59.9792 24.0833 60.6042 24.125 61.1875ZM40.25 66.875C40.2917 67 40.2917 67.3542 40.25 67.9375C40.2083 68.4792 40.125 69.1042 40 69.8125C39.9167 70.4792 39.8125 71.1042 39.6875 71.6875C39.5625 72.2292 39.4583 72.5625 39.375 72.6875C38.9583 72.7292 38.5417 72.75 38.125 72.75C37.7083 72.7083 37.3125 72.6875 36.9375 72.6875H35.625C35.5833 75.4375 35.5208 78.1667 35.4375 80.875C35.3542 83.5833 35.25 86.0208 35.125 88.1875C35 90.3125 34.8542 92.0417 34.6875 93.375C34.5625 94.7083 34.4375 95.3958 34.3125 95.4375C34.0208 95.4792 33.6875 95.3542 33.3125 95.0625C32.9375 94.7708 32.5625 94.4167 32.1875 94C31.8542 93.5417 31.5417 93.0833 31.25 92.625C31 92.125 30.8542 91.6875 30.8125 91.3125C30.6042 88.7708 30.4167 86.3542 30.25 84.0625C30.0833 81.7292 29.9583 79.6667 29.875 77.875C29.7083 75.7917 29.6042 73.8542 29.5625 72.0625C29.1042 72.0208 28.6458 71.9583 28.1875 71.875C27.7708 71.7917 27.3333 71.7083 26.875 71.625C26.4583 71.5417 26.0208 71.4583 25.5625 71.375C25.4792 71.2917 25.375 71.1042 25.25 70.8125C25.125 70.4792 25 70.125 24.875 69.75C24.7917 69.375 24.7083 69.0208 24.625 68.6875C24.5417 68.3125 24.5 68.0417 24.5 67.875C24.5 67.75 24.9583 67.625 25.875 67.5C26.8333 67.375 28 67.2708 29.375 67.1875C29.2917 64.9792 29.2292 63.0625 29.1875 61.4375C29.1875 59.7708 29.25 58.6458 29.375 58.0625C29.5 57.2708 29.8333 56.5208 30.375 55.8125C30.9583 55.0625 31.5625 54.4167 32.1875 53.875C32.8542 53.3333 33.4583 52.9375 34 52.6875C34.5833 52.3958 34.9583 52.3125 35.125 52.4375C35.25 52.5208 35.3542 52.9583 35.4375 53.75C35.5208 54.5 35.5833 55.5208 35.625 56.8125C35.6667 58.1042 35.6875 59.625 35.6875 61.375C35.6875 63.0833 35.6875 64.8958 35.6875 66.8125C36.9375 66.7292 38 66.7083 38.875 66.75C39.75 66.75 40.2083 66.7917 40.25 66.875ZM58.75 66.125C59 66.4167 59.2292 66.7292 59.4375 67.0625C59.6458 67.3542 59.8333 67.7708 60 68.3125C60.1667 68.8125 60.2917 69.4792 60.375 70.3125C60.5 71.1458 60.5625 72.2292 60.5625 73.5625C60.5625 75.6875 60.5 77.8333 60.375 80C60.2917 82.125 60.2083 84 60.125 85.625C60.0833 87.0833 60.0417 88.4375 60 89.6875C59.9583 90.9375 59.9167 92.0417 59.875 93C59.8333 93.9167 59.7708 94.6458 59.6875 95.1875C59.6458 95.7292 59.6042 96.0208 59.5625 96.0625C59.3958 96.1875 59.125 96.1458 58.75 95.9375C58.4167 95.6875 58.0417 95.375 57.625 95C57.25 94.625 56.8958 94.2292 56.5625 93.8125C56.2292 93.3958 56.0208 93.0625 55.9375 92.8125C55.9375 92.6042 55.875 92 55.75 91C54.75 91.5833 53.6458 92 52.4375 92.25C51.2292 92.4583 50.0208 92.5417 48.8125 92.5C47.6458 92.4167 46.5625 92.1875 45.5625 91.8125C44.5625 91.4375 43.8125 90.9375 43.3125 90.3125C43.1042 90.0625 42.9167 89.6875 42.75 89.1875C42.625 88.6875 42.5 88.125 42.375 87.5C42.2917 86.8333 42.2083 86.1458 42.125 85.4375C42.0417 84.6875 41.9792 84 41.9375 83.375C41.8542 81.75 42.0625 80.3542 42.5625 79.1875C43.0625 77.9792 43.9792 77.0833 45.3125 76.5C45.8958 76.25 46.6667 76.125 47.625 76.125C48.625 76.0833 49.6042 76.125 50.5625 76.25C51.5625 76.3333 52.4583 76.4583 53.25 76.625C54.0417 76.75 54.5417 76.8542 54.75 76.9375C54.5833 74.8125 54.4583 72.9792 54.375 71.4375C54.2917 69.8542 54.125 68.8333 53.875 68.375C53.6667 68.0833 53.4167 67.7917 53.125 67.5C52.875 67.2917 52.5417 67.0625 52.125 66.8125C51.7083 66.5625 51.2083 66.375 50.625 66.25C50.1667 66.1667 49.75 66.3542 49.375 66.8125C49.0417 67.2292 48.7292 67.9792 48.4375 69.0625C48.1875 70.1042 48.0417 71.7083 48 73.875C46.5417 73.9167 45.4167 73.9167 44.625 73.875C43.875 73.7917 43.3125 73.7083 42.9375 73.625C42.4792 73.5417 42.2083 73.4375 42.125 73.3125C42.0417 73.1458 42.0833 72.5417 42.25 71.5C42.4167 70.4167 42.6458 69.25 42.9375 68C43.2708 66.75 43.6458 65.5625 44.0625 64.4375C44.5208 63.3125 45 62.6042 45.5 62.3125C46.5 61.7292 47.6875 61.5208 49.0625 61.6875C50.4792 61.8542 51.8542 62.2083 53.1875 62.75C54.5208 63.2917 55.7083 63.8958 56.75 64.5625C57.7917 65.2292 58.4583 65.75 58.75 66.125ZM54.875 84.375C54.875 84.1667 54.8958 83.8958 54.9375 83.5625C54.9792 83.1875 55 82.8125 55 82.4375C55 82.0625 54.9792 81.7083 54.9375 81.375C54.9375 81.0417 54.8958 80.7917 54.8125 80.625C54.6875 80.375 54.3125 80.1667 53.6875 80C53.1042 79.8333 52.4375 79.7292 51.6875 79.6875C50.9375 79.6042 50.2292 79.5833 49.5625 79.625C48.8958 79.625 48.4375 79.7083 48.1875 79.875C47.8542 80.0833 47.6042 80.375 47.4375 80.75C47.3125 81.125 47.2292 81.7083 47.1875 82.5C47.1875 82.875 47.2083 83.2708 47.25 83.6875C47.2917 84.1042 47.3333 84.5208 47.375 84.9375C47.4583 85.3125 47.5417 85.6458 47.625 85.9375C47.75 86.2292 47.875 86.4167 48 86.5C48.2917 86.7083 48.7917 86.8958 49.5 87.0625C50.25 87.1875 51 87.2292 51.75 87.1875C52.5 87.1042 53.1875 86.8542 53.8125 86.4375C54.4375 86.0208 54.7917 85.3333 54.875 84.375ZM74.5625 64.8125C74.3958 64.6458 74.0417 64.4792 73.5 64.3125C72.9583 64.1458 72.5833 64.2083 72.375 64.5C72.25 64.6667 72.0417 65.2083 71.75 66.125C71.4583 67.0417 71.1458 68.2083 70.8125 69.625C70.5208 71.0417 70.25 72.6667 70 74.5C69.7917 76.3333 69.6875 78.2292 69.6875 80.1875C69.6875 81.6042 69.75 82.9583 69.875 84.25C70 85.5 70.1458 86.6042 70.3125 87.5625C70.5208 88.5208 70.75 89.2917 71 89.875C71.2917 90.4583 71.5833 90.7708 71.875 90.8125C72.125 90.8125 72.4167 90.5208 72.75 89.9375C73.125 89.3542 73.4792 88.6875 73.8125 87.9375C74.1875 87.1458 74.5 86.4167 74.75 85.75C75.0417 85.0417 75.25 84.5833 75.375 84.375C75.7083 83.8333 76.1458 83.375 76.6875 83C77.2292 82.5833 77.6875 82.375 78.0625 82.375C78.2708 82.375 78.4167 82.5208 78.5 82.8125C78.625 83.1042 78.7083 83.4583 78.75 83.875C78.8333 84.25 78.875 84.6458 78.875 85.0625C78.875 85.4792 78.875 85.8125 78.875 86.0625C78.875 86.5208 78.7917 87.375 78.625 88.625C78.4583 89.875 78.2083 91.1458 77.875 92.4375C77.5833 93.7292 77.2292 94.875 76.8125 95.875C76.4375 96.875 76.0208 97.3542 75.5625 97.3125C75.1042 97.2708 74.4167 97.0625 73.5 96.6875C72.5833 96.3125 71.6458 95.875 70.6875 95.375C69.7708 94.875 68.9167 94.375 68.125 93.875C67.375 93.3333 66.9167 92.9167 66.75 92.625C66.5833 92.3333 66.3333 91.625 66 90.5C65.6667 89.3333 65.3125 87.9167 64.9375 86.25C64.6042 84.5833 64.3125 82.75 64.0625 80.75C63.8125 78.75 63.6875 76.75 63.6875 74.75C63.6875 72.75 63.7292 70.7708 63.8125 68.8125C63.9375 66.8542 64.125 65.1042 64.375 63.5625C64.625 62.0208 64.9375 60.7708 65.3125 59.8125C65.7292 58.8542 66.2292 58.3542 66.8125 58.3125C68.4375 58.1458 70.0625 58.2917 71.6875 58.75C73.3542 59.1667 74.8333 59.75 76.125 60.5C77.4583 61.2083 78.5417 61.9792 79.375 62.8125C80.2083 63.6042 80.6458 64.2708 80.6875 64.8125C80.7292 65.3958 80.6875 66.2083 80.5625 67.25C80.4792 68.2917 80.3333 69.3542 80.125 70.4375C79.9583 71.4792 79.75 72.4375 79.5 73.3125C79.2917 74.1458 79.1042 74.625 78.9375 74.75C78.5625 75.125 78.125 75.5208 77.625 75.9375C77.125 76.3542 76.6458 76.4375 76.1875 76.1875C76.0208 76.1042 75.875 75.7917 75.75 75.25C75.625 74.6667 75.5 73.9583 75.375 73.125C75.2917 72.2917 75.2083 71.3958 75.125 70.4375C75.0417 69.4792 74.9583 68.6042 74.875 67.8125C74.8333 66.9792 74.7708 66.2917 74.6875 65.75C74.6458 65.1667 74.6042 64.8542 74.5625 64.8125ZM93 77.3125C93.3333 77.8958 93.8333 78.7708 94.5 79.9375C95.2083 81.1042 95.9583 82.3958 96.75 83.8125C97.5417 85.2292 98.3542 86.6875 99.1875 88.1875C100.021 89.6875 100.75 91.0625 101.375 92.3125C102 93.5625 102.479 94.6042 102.812 95.4375C103.188 96.2708 103.312 96.7292 103.188 96.8125C102.979 96.9375 102.667 97 102.25 97C101.833 96.9583 101.396 96.8958 100.938 96.8125C100.479 96.6875 100.042 96.5417 99.625 96.375C99.25 96.1667 98.9792 95.9792 98.8125 95.8125C97.3958 93.8958 96.125 92.125 95 90.5C93.9167 88.875 92.9583 87.4583 92.125 86.25C91.1667 84.875 90.3125 83.6042 89.5625 82.4375C89.4375 84.3958 89.3125 86.25 89.1875 88C89.0625 89.75 88.9375 91.3125 88.8125 92.6875C88.6875 94.0208 88.5417 95.1042 88.375 95.9375C88.25 96.7292 88.125 97.1458 88 97.1875C87.6667 97.2292 87.3125 97.1042 86.9375 96.8125C86.5625 96.4792 86.2083 96.0833 85.875 95.625C85.5417 95.125 85.2292 94.625 84.9375 94.125C84.6875 93.5833 84.5417 93.125 84.5 92.75C84.25 88.9583 84.0417 85.5625 83.875 82.5625C83.75 79.5208 83.625 76.8333 83.5 74.5C83.4167 72.1667 83.3542 70.1458 83.3125 68.4375C83.3125 66.6875 83.3125 65.2083 83.3125 64C83.3125 61.125 83.3958 59.1458 83.5625 58.0625C83.7292 57.2292 84.1042 56.4375 84.6875 55.6875C85.3125 54.8958 85.9792 54.2083 86.6875 53.625C87.3958 53.0417 88.0625 52.6042 88.6875 52.3125C89.3125 52.0208 89.7292 51.9375 89.9375 52.0625C90.1042 52.1875 90.2083 52.9167 90.25 54.25C90.2917 55.5833 90.2917 57.2917 90.25 59.375C90.25 61.4167 90.2083 63.7083 90.125 66.25C90.0417 68.7917 89.9583 71.3333 89.875 73.875C90.625 72.75 91.3542 71.625 92.0625 70.5C92.7708 69.3333 93.4375 68.2917 94.0625 67.375C94.6875 66.4167 95.2292 65.625 95.6875 65C96.1875 64.375 96.5625 64 96.8125 63.875C97.1042 63.7083 97.5625 63.5833 98.1875 63.5C98.8542 63.375 99.5208 63.2917 100.188 63.25C100.854 63.2083 101.458 63.2292 102 63.3125C102.583 63.3958 102.938 63.5417 103.062 63.75C103.188 63.875 102.958 64.3958 102.375 65.3125C101.792 66.1875 101.021 67.2708 100.062 68.5625C99.1042 69.8542 98 71.2708 96.75 72.8125C95.5 74.3542 94.25 75.8542 93 77.3125Z" fill="#FDE82C"/>
</svg>
