<svg width="104" height="63" viewBox="0 0 104 63" fill="none" xmlns="http://www.w3.org/2000/svg">
<path d="M28.0723 0.371094L26.4551 26.1758L18.4395 26.5273L18.5098 12.9219L14.8887 23.8906H11.7949L9.01758 14.082L8.98242 25.4727L0.861328 25.7188L1.21289 1.42578L10.248 1.07422L13.834 12.7109L18.6152 0.371094H28.0723ZM50.8887 12.5352C50.8887 13.6016 50.7656 14.6328 50.5195 15.6289C50.2734 16.6133 49.916 17.5391 49.4473 18.4062C48.9902 19.2734 48.4277 20.0703 47.7598 20.7969C47.1035 21.5117 46.3594 22.127 45.5273 22.6426C44.707 23.1582 43.8105 23.5625 42.8379 23.8555C41.8652 24.1367 40.834 24.2773 39.7441 24.2773C38.6895 24.2773 37.6816 24.1426 36.7207 23.873C35.7715 23.6035 34.8809 23.2285 34.0488 22.748C33.2168 22.2559 32.4609 21.6699 31.7812 20.9902C31.1133 20.2988 30.5391 19.5371 30.0586 18.7051C29.5898 17.8613 29.2207 16.959 28.9512 15.998C28.6934 15.0371 28.5645 14.0352 28.5645 12.9922C28.5645 11.9727 28.6875 10.9766 28.9336 10.0039C29.1797 9.01953 29.5312 8.09375 29.9883 7.22656C30.457 6.35938 31.0195 5.5625 31.6758 4.83594C32.332 4.10938 33.0645 3.48242 33.873 2.95508C34.6934 2.42773 35.5781 2.01758 36.5273 1.72461C37.4766 1.43164 38.4785 1.28516 39.5332 1.28516C41.2324 1.28516 42.7793 1.54883 44.1738 2.07617C45.5801 2.60352 46.7754 3.35938 47.7598 4.34375C48.7559 5.31641 49.5234 6.5 50.0625 7.89453C50.6133 9.27734 50.8887 10.8242 50.8887 12.5352ZM43.084 12.9922C43.084 12.4883 43.0078 12.002 42.8555 11.5332C42.7148 11.0527 42.5039 10.6309 42.2227 10.2676C41.9414 9.89258 41.5898 9.59375 41.168 9.37109C40.7578 9.13672 40.2832 9.01953 39.7441 9.01953C39.1934 9.01953 38.7012 9.11914 38.2676 9.31836C37.834 9.51758 37.459 9.79297 37.1426 10.1445C36.8379 10.4844 36.6035 10.8887 36.4395 11.3574C36.2754 11.8145 36.1934 12.3008 36.1934 12.8164C36.1934 13.3086 36.2637 13.8008 36.4043 14.293C36.5449 14.7852 36.7559 15.2305 37.0371 15.6289C37.3184 16.0273 37.6641 16.3496 38.0742 16.5957C38.4961 16.8418 38.9824 16.9648 39.5332 16.9648C40.084 16.9648 40.5762 16.8594 41.0098 16.6484C41.4551 16.4258 41.8301 16.1328 42.1348 15.7695C42.4395 15.3945 42.6738 14.9668 42.8379 14.4863C43.002 14.0059 43.084 13.5078 43.084 12.9922ZM73.0195 1.35547L66.5859 25.1211L57.8672 25.6133L49.957 2.65625L58.2891 1.88281L61.6641 15.2422L64.9336 0.828125L73.0195 1.35547ZM82.7402 1.25L81.5098 25.1914L74.0918 25.5781L73.3887 1.74219L82.7402 1.25ZM103.799 11.7969C103.799 12.8164 103.729 13.8359 103.588 14.8555C101.584 14.9844 99.5918 15.1953 97.6113 15.4883C95.6309 15.7695 93.6504 16.0508 91.6699 16.332C91.9746 17.1758 92.4492 17.8496 93.0938 18.3535C93.75 18.8574 94.5293 19.1094 95.4316 19.1094C95.9004 19.1094 96.4102 19.0215 96.9609 18.8457C97.5234 18.6699 98.0801 18.4531 98.6309 18.1953C99.1816 17.9258 99.709 17.6387 100.213 17.334C100.717 17.0293 101.15 16.7539 101.514 16.5078L100.67 24.4883C100.213 24.8398 99.7148 25.1387 99.1758 25.3848C98.6484 25.6309 98.0977 25.8301 97.5234 25.9824C96.9492 26.1348 96.3691 26.2461 95.7832 26.3164C95.1973 26.3867 94.623 26.4219 94.0605 26.4219C92.9004 26.4219 91.8398 26.2637 90.8789 25.9473C89.918 25.6309 89.0449 25.1914 88.2598 24.6289C87.4863 24.0547 86.8066 23.3809 86.2207 22.6074C85.6348 21.834 85.1484 20.9902 84.7617 20.0762C84.375 19.1621 84.082 18.1953 83.8828 17.1758C83.6836 16.1562 83.584 15.125 83.584 14.082C83.584 12.9922 83.6836 11.9023 83.8828 10.8125C84.082 9.72266 84.3809 8.67383 84.7793 7.66602C85.1895 6.6582 85.6992 5.72656 86.3086 4.87109C86.9297 4.00391 87.6504 3.24805 88.4707 2.60352C89.291 1.95898 90.2168 1.45508 91.248 1.0918C92.291 0.728516 93.4395 0.546875 94.6934 0.546875C95.7363 0.546875 96.6855 0.693359 97.541 0.986328C98.4082 1.26758 99.1758 1.66602 99.8438 2.18164C100.523 2.68555 101.109 3.28906 101.602 3.99219C102.105 4.69531 102.516 5.46875 102.832 6.3125C103.16 7.14453 103.4 8.0293 103.553 8.9668C103.717 9.89258 103.799 10.8359 103.799 11.7969ZM96.7676 10.8828C96.7676 10.5547 96.7324 10.2207 96.6621 9.88086C96.5918 9.5293 96.4746 9.21289 96.3105 8.93164C96.1582 8.65039 95.9531 8.42188 95.6953 8.24609C95.4375 8.05859 95.1152 7.96484 94.7285 7.96484C94.2598 7.96484 93.8438 8.09375 93.4805 8.35156C93.1289 8.59766 92.8242 8.91406 92.5664 9.30078C92.3086 9.67578 92.0977 10.0859 91.9336 10.5312C91.7695 10.9766 91.6465 11.3867 91.5645 11.7617L96.7676 11.2695V10.8828ZM18.8965 52.6484C18.8965 54.2539 18.6152 55.6602 18.0527 56.8672C17.502 58.0625 16.7402 59.0586 15.7676 59.8555C14.8066 60.6523 13.6758 61.25 12.375 61.6484C11.0859 62.0469 9.69727 62.2461 8.20898 62.2461C7.63477 62.2461 7.00195 62.1699 6.31055 62.0176C5.63086 61.8652 4.93945 61.6777 4.23633 61.4551C3.5332 61.2207 2.85352 60.9746 2.19727 60.7168C1.55273 60.4473 0.978516 60.1953 0.474609 59.9609L1.24805 52.7188C2.24414 53.3164 3.3457 53.7734 4.55273 54.0898C5.77148 54.3945 6.9668 54.5469 8.13867 54.5469C8.36133 54.5469 8.63086 54.541 8.94727 54.5293C9.26367 54.5059 9.5625 54.4531 9.84375 54.3711C10.1367 54.2773 10.3828 54.1426 10.582 53.9668C10.7812 53.791 10.8809 53.5391 10.8809 53.2109C10.8809 52.9883 10.8105 52.8008 10.6699 52.6484C10.5293 52.4844 10.3477 52.3555 10.125 52.2617C9.90234 52.1562 9.65039 52.0801 9.36914 52.0332C9.08789 51.9746 8.8125 51.9336 8.54297 51.9102C8.27344 51.8867 8.02148 51.875 7.78711 51.875C7.55273 51.875 7.36523 51.875 7.22461 51.875C6.2168 51.875 5.29688 51.6992 4.46484 51.3477C3.64453 50.9961 2.93555 50.5098 2.33789 49.8887C1.75195 49.2559 1.29492 48.5117 0.966797 47.6562C0.638672 46.7891 0.474609 45.8516 0.474609 44.8438C0.474609 43.4609 0.75 42.2246 1.30078 41.1348C1.86328 40.0332 2.60742 39.1016 3.5332 38.3398C4.4707 37.5664 5.54297 36.9746 6.75 36.5645C7.95703 36.1543 9.20508 35.9492 10.4941 35.9492C11.0684 35.9492 11.6602 35.9727 12.2695 36.0195C12.8789 36.0547 13.4824 36.125 14.0801 36.2305C14.6895 36.3359 15.2812 36.4707 15.8555 36.6348C16.4297 36.7988 16.9746 37.0039 17.4902 37.25L16.8223 44.3867C16.0254 44.1172 15.1875 43.8945 14.3086 43.7188C13.4414 43.5312 12.5918 43.4375 11.7598 43.4375C11.6074 43.4375 11.4082 43.4434 11.1621 43.4551C10.9277 43.4551 10.6758 43.4727 10.4062 43.5078C10.1484 43.5312 9.88477 43.5723 9.61523 43.6309C9.3457 43.6895 9.10547 43.7715 8.89453 43.877C8.68359 43.9707 8.51367 44.0996 8.38477 44.2637C8.25586 44.4277 8.19727 44.6211 8.20898 44.8438C8.2207 45.1016 8.31445 45.3125 8.49023 45.4766C8.67773 45.6289 8.91211 45.752 9.19336 45.8457C9.48633 45.9277 9.80273 45.9863 10.1426 46.0215C10.4941 46.0566 10.8398 46.0801 11.1797 46.0918C11.5195 46.0918 11.8359 46.0918 12.1289 46.0918C12.4219 46.0801 12.6621 46.0859 12.8496 46.1094C13.7871 46.168 14.6309 46.3672 15.3809 46.707C16.1309 47.0469 16.7637 47.498 17.2793 48.0605C17.8066 48.623 18.2051 49.2969 18.4746 50.082C18.7559 50.8555 18.8965 51.7109 18.8965 52.6484ZM38.2148 37.2148L38.0391 44.668L32.8008 44.8789L32.168 61.1914L24.75 61.5781L24.082 45.2656L18.8438 45.5469L19.0547 37.25L38.2148 37.2148ZM59.0977 60.4883L50.3789 61.6133L49.3242 57.6406H45.3164L44.4375 61.6133L35.4727 60.7344L42.4688 37.3203L52.2422 36.8281L59.0977 60.4883ZM48.6914 52.2617L47.3555 46.1445L46.0547 52.2617H48.6914ZM75.7793 37.9883L75.1465 45.4062C74.8066 45.3125 74.4727 45.248 74.1445 45.2129C73.8164 45.1777 73.4824 45.1602 73.1426 45.1602C72.3105 45.1602 71.5137 45.2656 70.752 45.4766C70.002 45.6875 69.334 46.0098 68.748 46.4434C68.1738 46.877 67.7109 47.4277 67.3594 48.0957C67.0195 48.752 66.8496 49.5312 66.8496 50.4336C66.8496 51.0898 66.9434 51.6641 67.1309 52.1562C67.3301 52.6367 67.6055 53.041 67.957 53.3691C68.3203 53.6855 68.7539 53.9258 69.2578 54.0898C69.7734 54.2539 70.3418 54.3359 70.9629 54.3359C71.3965 54.3359 71.8418 54.2949 72.2988 54.2129C72.7559 54.1191 73.2129 53.9961 73.6699 53.8438C74.127 53.6914 74.5664 53.5156 74.9883 53.3164C75.4102 53.1172 75.8027 52.9062 76.166 52.6836L75.8848 60.9453C75.4277 61.1797 74.9355 61.3906 74.4082 61.5781C73.8809 61.7539 73.3359 61.9062 72.7734 62.0352C72.2227 62.1758 71.666 62.2812 71.1035 62.3516C70.5527 62.4219 70.0254 62.457 69.5215 62.457C67.8574 62.457 66.3398 62.1465 64.9688 61.5254C63.6094 60.9043 62.4375 60.0605 61.4531 58.9941C60.4805 57.916 59.7246 56.668 59.1855 55.25C58.6465 53.832 58.377 52.3203 58.377 50.7148C58.377 48.793 58.6465 47 59.1855 45.3359C59.7363 43.6719 60.5391 42.2305 61.5938 41.0117C62.6602 39.7812 63.9727 38.8203 65.5312 38.1289C67.1016 37.4258 68.9004 37.0742 70.9277 37.0742C71.7363 37.0742 72.5566 37.1387 73.3887 37.2676C74.2207 37.3965 75.0176 37.6367 75.7793 37.9883ZM99.0703 39.2891L91.3008 48.5352L98.4375 60.6289L90.2812 62.0703L84.9375 54.8281L84.6562 61.7188L77.3438 62L77.9062 36.8281L86.0977 37.2852L85.4648 44.5273L90.5625 37.1797L99.0703 39.2891Z" fill="#FBD446"/>
</svg>
